<svg width="120" height="120" viewBox="0 0 120 120" fill="none" xmlns="http://www.w3.org/2000/svg">
<circle cx="60" cy="60" r="50" fill="white"/>
<path d="M67.12 66.9C65.32 67.54 63.64 68.02 62.08 68.34C60.56 68.66 59.08 68.82 57.64 68.82C51.48 68.82 46.78 67.36 43.54 64.44C40.34 61.52 38.74 57.26 38.74 51.66V39H52.66V50.1C52.66 52.66 53.22 54.56 54.34 55.8C55.46 57 57.16 57.6 59.44 57.6C61 57.6 62.4 57.46 63.64 57.18C64.88 56.86 65.92 56.42 66.76 55.86L67.12 66.9ZM65.26 81V39H79.18V81H65.26Z" fill="black"/>
</svg>
